# xmcd
#
# Track frame offsets: 
#        150
#        13027
#        25712
#        39175
#        50803
#        62777
#        75850
#        88131
#        101002
#        112847
#        126474
#        139276
#        151408
#        163908
#        175640
#        187811
#        200650
#        213205
#        224862
#        236137
#        248186
#        261097
#        272199
#        284931
#        296985
#
# Disc length: 4122 seconds
#
# Revision: 1
# Processed by: cddbd v1.5.2PL0 Copyright (c) Steve Scherf et al.
# Submitted via: ExactAudioCopy v1.0b3
#
DISCID=82101819
DTITLE=Roy Acuff - King Of The Hillbillies_CD4
DYEAR=2007
DGENRE=Country
TTITLE0=It Won't Be Long (Till I'll Be Leaving)
TTITLE1=Just Inside The Pearly Gates
TTITLE2=I Know We're Saying Goodbye
TTITLE3=Brother Take Warning
TTITLE4=The Great Judgement Morning
TTITLE5=Stuck Up Blues
TTITLE6=Lying Woman Blues
TTITLE7=You Are My Love
TTITLE8=Branded Wherever I Go
TTITLE9=No Letter In The Mail
TTITLE10=Are You Thinking Of Me Darling?
TTITLE11=I Called And Nobody Answered
TTITLE12=Wreck On The Highway
TTITLE13=Fire Ball Mail
TTITLE14=I'll Reap My Harvest In Heaven
TTITLE15=Night Train To Memphis
TTITLE16=The Prodigal Son
TTITLE17=Low And Lonely
TTITLE18=Write Me Sweetheart
TTITLE19=They Can Only Fill One Grave
TTITLE20=Don't Make Me Go To Bed And I'll Be Good
TTITLE21=Not A Word From Home
TTITLE22=Do You Wonder Why
TTITLE23=I'll Forgive You But I Can't Forget
TTITLE24=Blues In My Mind
EXTD=
EXTT0=
EXTT1=
EXTT2=
EXTT3=
EXTT4=
EXTT5=
EXTT6=
EXTT7=
EXTT8=
EXTT9=
EXTT10=
EXTT11=
EXTT12=
EXTT13=
EXTT14=
EXTT15=
EXTT16=
EXTT17=
EXTT18=
EXTT19=
EXTT20=
EXTT21=
EXTT22=
EXTT23=
EXTT24=
PLAYORDER=
